<svg width="252" height="18" viewBox="0 0 252 18" fill="none" xmlns="http://www.w3.org/2000/svg">
<g clip-path="url(#clip0_49_645)">
<path d="M16 9C16 11.1217 15.1571 13.1566 13.6569 14.6569C12.1566 16.1571 10.1217 17 8 17C5.87827 17 3.84344 16.1571 2.34315 14.6569C0.842855 13.1566 0 11.1217 0 9C0 6.87827 0.842855 4.84344 2.34315 3.34315C3.84344 1.84285 5.87827 1 8 1C10.1217 1 12.1566 1.84285 13.6569 3.34315C15.1571 4.84344 16 6.87827 16 9ZM8 5C7.87361 5.00007 7.74863 5.02662 7.63312 5.07793C7.51761 5.12924 7.41413 5.20418 7.32934 5.29791C7.24456 5.39165 7.18035 5.5021 7.14084 5.62217C7.10134 5.74223 7.08743 5.86923 7.1 5.995L7.45 9.502C7.46176 9.63977 7.5248 9.76811 7.62664 9.86164C7.72849 9.95516 7.86173 10.0071 8 10.0071C8.13827 10.0071 8.27151 9.95516 8.37336 9.86164C8.4752 9.76811 8.53824 9.63977 8.55 9.502L8.9 5.995C8.91257 5.86923 8.89866 5.74223 8.85915 5.62217C8.81965 5.5021 8.75544 5.39165 8.67066 5.29791C8.58587 5.20418 8.48239 5.12924 8.36688 5.07793C8.25137 5.02662 8.12639 5.00007 8 5ZM8.002 11C7.73678 11 7.48243 11.1054 7.29489 11.2929C7.10736 11.4804 7.002 11.7348 7.002 12C7.002 12.2652 7.10736 12.5196 7.29489 12.7071C7.48243 12.8946 7.73678 13 8.002 13C8.26722 13 8.52157 12.8946 8.70911 12.7071C8.89664 12.5196 9.002 12.2652 9.002 12C9.002 11.7348 8.89664 11.4804 8.70911 11.2929C8.52157 11.1054 8.26722 11 8.002 11Z" fill="#495057"/>
</g>
<path opacity="0.8" d="M25.4148 13L26.2926 10.5284H29.821L30.6989 13H31.8068L28.6023 4.27273H27.5114L24.3068 13H25.4148ZM26.625 9.59091L28.0227 5.65341H28.0909L29.4886 9.59091H26.625ZM33.0298 15.4545H34.0355V11.9943H34.1207C34.3423 12.3523 34.7685 13.1364 36.0298 13.1364C37.6662 13.1364 38.8082 11.8239 38.8082 9.74432C38.8082 7.68182 37.6662 6.36932 36.0128 6.36932C34.7344 6.36932 34.3423 7.15341 34.1207 7.49432H34.0014V6.45455H33.0298V15.4545ZM34.0185 9.72727C34.0185 8.26136 34.6662 7.27273 35.8935 7.27273C37.1719 7.27273 37.8026 8.34659 37.8026 9.72727C37.8026 11.125 37.1548 12.233 35.8935 12.233C34.6832 12.233 34.0185 11.2102 34.0185 9.72727ZM43.0866 13.1364C44.4162 13.1364 45.3878 12.4716 45.6946 11.483L44.723 11.2102C44.4673 11.892 43.875 12.233 43.0866 12.233C41.9062 12.233 41.0923 11.4702 41.0455 10.0682H45.7969V9.64205C45.7969 7.20455 44.348 6.36932 42.9844 6.36932C41.2116 6.36932 40.0355 7.76705 40.0355 9.77841C40.0355 11.7898 41.1946 13.1364 43.0866 13.1364ZM41.0455 9.19886C41.1136 8.1804 41.8338 7.27273 42.9844 7.27273C44.0753 7.27273 44.7741 8.09091 44.7741 9.19886H41.0455ZM48.3324 9.0625C48.3324 7.92045 49.0398 7.27273 50.0028 7.27273C50.9361 7.27273 51.5028 7.8821 51.5028 8.90909V13H52.5085V8.84091C52.5085 7.17045 51.6179 6.36932 50.2926 6.36932C49.304 6.36932 48.6903 6.8125 48.3835 7.47727H48.2983V6.45455H47.3267V13H48.3324V9.0625ZM56.2724 13.1534C57.4144 13.1534 58.011 12.5398 58.2156 12.1136H58.2667V13H59.2724V8.6875C59.2724 6.60795 57.6871 6.36932 56.8519 6.36932C55.8633 6.36932 54.7383 6.71023 54.2269 7.90341L55.1815 8.24432C55.4031 7.76705 55.9272 7.25568 56.886 7.25568C57.8107 7.25568 58.2667 7.74574 58.2667 8.58523V8.61932C58.2667 9.10511 57.7724 9.0625 56.5792 9.21591C55.3647 9.37358 54.0394 9.64205 54.0394 11.142C54.0394 12.4205 55.0281 13.1534 56.2724 13.1534ZM56.4258 12.25C55.6246 12.25 55.0451 11.892 55.0451 11.1932C55.0451 10.4261 55.744 10.1875 56.5281 10.0852C56.9542 10.0341 58.0962 9.91477 58.2667 9.71023V10.6307C58.2667 11.4489 57.619 12.25 56.4258 12.25ZM65.7443 7.92045C65.429 6.99148 64.7216 6.36932 63.4261 6.36932C62.0455 6.36932 61.0227 7.15341 61.0227 8.26136C61.0227 9.16477 61.5597 9.76989 62.7614 10.0511L63.8523 10.3068C64.5128 10.4602 64.8239 10.7756 64.8239 11.2273C64.8239 11.7898 64.2273 12.25 63.2898 12.25C62.4673 12.25 61.9517 11.8963 61.7727 11.1932L60.8182 11.4318C61.0526 12.544 61.9688 13.1364 63.3068 13.1364C64.8281 13.1364 65.8636 12.3054 65.8636 11.1761C65.8636 10.2642 65.2926 9.68892 64.125 9.40341L63.1534 9.16477C62.3778 8.97301 62.0284 8.71307 62.0284 8.21023C62.0284 7.64773 62.625 7.23864 63.4261 7.23864C64.304 7.23864 64.6662 7.72443 64.8409 8.17614L65.7443 7.92045ZM71.7582 4.27273H70.7525V13H71.7582V4.27273ZM76.3445 13.1364C77.674 13.1364 78.6456 12.4716 78.9524 11.483L77.9808 11.2102C77.7251 11.892 77.1328 12.233 76.3445 12.233C75.1641 12.233 74.3501 11.4702 74.3033 10.0682H79.0547V9.64205C79.0547 7.20455 77.6058 6.36932 76.2422 6.36932C74.4695 6.36932 73.2933 7.76705 73.2933 9.77841C73.2933 11.7898 74.4524 13.1364 76.3445 13.1364ZM74.3033 9.19886C74.3714 8.1804 75.0916 7.27273 76.2422 7.27273C77.3331 7.27273 78.032 8.09091 78.032 9.19886H74.3033ZM83.4311 6.45455H82.0334V4.88636H81.0277V6.45455H80.0391V7.30682H81.0277V11.3977C81.0277 12.5398 81.9482 13.0852 82.8004 13.0852C83.1754 13.0852 83.4141 13.017 83.5504 12.9659L83.3459 12.0625C83.2607 12.0795 83.1243 12.1136 82.9027 12.1136C82.4595 12.1136 82.0334 11.9773 82.0334 11.125V7.30682H83.4311V6.45455ZM84.9439 13H85.9496V8.85795C85.9496 7.97159 86.6484 7.32386 87.603 7.32386C87.8714 7.32386 88.1484 7.375 88.2166 7.39205V6.36932C88.1016 6.3608 87.8374 6.35227 87.6882 6.35227C86.9041 6.35227 86.2223 6.79545 85.9837 7.44318H85.9155V6.45455H84.9439V13ZM91.3349 13.1534C92.4769 13.1534 93.0735 12.5398 93.2781 12.1136H93.3292V13H94.3349V8.6875C94.3349 6.60795 92.7496 6.36932 91.9144 6.36932C90.9258 6.36932 89.8008 6.71023 89.2894 7.90341L90.244 8.24432C90.4656 7.76705 90.9897 7.25568 91.9485 7.25568C92.8732 7.25568 93.3292 7.74574 93.3292 8.58523V8.61932C93.3292 9.10511 92.8349 9.0625 91.6417 9.21591C90.4272 9.37358 89.1019 9.64205 89.1019 11.142C89.1019 12.4205 90.0906 13.1534 91.3349 13.1534ZM91.4883 12.25C90.6871 12.25 90.1076 11.892 90.1076 11.1932C90.1076 10.4261 90.8065 10.1875 91.5906 10.0852C92.0167 10.0341 93.1587 9.91477 93.3292 9.71023V10.6307C93.3292 11.4489 92.6815 12.25 91.4883 12.25ZM100.807 7.92045C100.491 6.99148 99.7841 6.36932 98.4886 6.36932C97.108 6.36932 96.0852 7.15341 96.0852 8.26136C96.0852 9.16477 96.6222 9.76989 97.8239 10.0511L98.9148 10.3068C99.5753 10.4602 99.8864 10.7756 99.8864 11.2273C99.8864 11.7898 99.2898 12.25 98.3523 12.25C97.5298 12.25 97.0142 11.8963 96.8352 11.1932L95.8807 11.4318C96.1151 12.544 97.0312 13.1364 98.3693 13.1364C99.8906 13.1364 100.926 12.3054 100.926 11.1761C100.926 10.2642 100.355 9.68892 99.1875 9.40341L98.2159 9.16477C97.4403 8.97301 97.0909 8.71307 97.0909 8.21023C97.0909 7.64773 97.6875 7.23864 98.4886 7.23864C99.3665 7.23864 99.7287 7.72443 99.9034 8.17614L100.807 7.92045ZM105.815 13H106.821V8.90909C106.821 7.95028 107.52 7.27273 108.304 7.27273C109.066 7.27273 109.599 7.77131 109.599 8.51705V13H110.622V8.73864C110.622 7.89489 111.15 7.27273 112.071 7.27273C112.787 7.27273 113.4 7.65199 113.4 8.61932V13H114.406V8.61932C114.406 7.08097 113.579 6.36932 112.412 6.36932C111.474 6.36932 110.788 6.79972 110.451 7.47727H110.383C110.059 6.77841 109.488 6.36932 108.627 6.36932C107.775 6.36932 107.145 6.77841 106.872 7.47727H106.787V6.45455H105.815V13ZM116.245 13H117.25V6.45455H116.245V13ZM116.756 5.36364C117.148 5.36364 117.472 5.05682 117.472 4.68182C117.472 4.30682 117.148 4 116.756 4C116.364 4 116.04 4.30682 116.04 4.68182C116.04 5.05682 116.364 5.36364 116.756 5.36364ZM120.098 9.0625C120.098 7.92045 120.805 7.27273 121.768 7.27273C122.702 7.27273 123.268 7.8821 123.268 8.90909V13H124.274V8.84091C124.274 7.17045 123.384 6.36932 122.058 6.36932C121.07 6.36932 120.456 6.8125 120.149 7.47727H120.064V6.45455H119.092V13H120.098V9.0625ZM130.237 10.3239C130.237 11.5511 129.299 12.1136 128.549 12.1136C127.714 12.1136 127.118 11.5 127.118 10.5455V6.45455H126.112V10.6136C126.112 12.2841 126.998 13.0852 128.225 13.0852C129.214 13.0852 129.862 12.5568 130.169 11.892H130.237V13H131.243V6.45455H130.237V10.3239ZM128.225 5.56818H129.112L130.441 3.59091H129.265L128.225 5.56818ZM137.721 7.92045C137.406 6.99148 136.698 6.36932 135.403 6.36932C134.022 6.36932 132.999 7.15341 132.999 8.26136C132.999 9.16477 133.536 9.76989 134.738 10.0511L135.829 10.3068C136.489 10.4602 136.8 10.7756 136.8 11.2273C136.8 11.7898 136.204 12.25 135.266 12.25C134.444 12.25 133.928 11.8963 133.749 11.1932L132.795 11.4318C133.029 12.544 133.945 13.1364 135.283 13.1364C136.805 13.1364 137.84 12.3054 137.84 11.1761C137.84 10.2642 137.269 9.68892 136.102 9.40341L135.13 9.16477C134.354 8.97301 134.005 8.71307 134.005 8.21023C134.005 7.64773 134.602 7.23864 135.403 7.23864C136.281 7.23864 136.643 7.72443 136.817 8.17614L137.721 7.92045ZM142.013 13.1364C143.462 13.1364 144.417 12.25 144.587 11.0909H143.581C143.394 11.8068 142.797 12.233 142.013 12.233C140.82 12.233 140.053 11.2443 140.053 9.72727C140.053 8.24432 140.837 7.27273 142.013 7.27273C142.9 7.27273 143.428 7.81818 143.581 8.41477H144.587C144.417 7.1875 143.377 6.36932 141.996 6.36932C140.223 6.36932 139.047 7.76705 139.047 9.76136C139.047 11.7216 140.172 13.1364 142.013 13.1364ZM150.182 10.3239C150.182 11.5511 149.245 12.1136 148.495 12.1136C147.659 12.1136 147.063 11.5 147.063 10.5455V6.45455H146.057V10.6136C146.057 12.2841 146.944 13.0852 148.171 13.0852C149.159 13.0852 149.807 12.5568 150.114 11.892H150.182V13H151.188V6.45455H150.182V10.3239ZM154.036 4.27273H153.03V13H154.036V4.27273ZM157.804 13.1534C158.946 13.1534 159.542 12.5398 159.747 12.1136H159.798V13H160.804V8.6875C160.804 6.60795 159.218 6.36932 158.383 6.36932C157.395 6.36932 156.27 6.71023 155.758 7.90341L156.713 8.24432C156.934 7.76705 157.458 7.25568 158.417 7.25568C159.342 7.25568 159.798 7.74574 159.798 8.58523V8.61932C159.798 9.10511 159.304 9.0625 158.11 9.21591C156.896 9.37358 155.571 9.64205 155.571 11.142C155.571 12.4205 156.559 13.1534 157.804 13.1534ZM157.957 12.25C157.156 12.25 156.576 11.892 156.576 11.1932C156.576 10.4261 157.275 10.1875 158.059 10.0852C158.485 10.0341 159.627 9.91477 159.798 9.71023V10.6307C159.798 11.4489 159.15 12.25 157.957 12.25ZM167.276 7.92045C166.96 6.99148 166.253 6.36932 164.957 6.36932C163.577 6.36932 162.554 7.15341 162.554 8.26136C162.554 9.16477 163.091 9.76989 164.293 10.0511L165.384 10.3068C166.044 10.4602 166.355 10.7756 166.355 11.2273C166.355 11.7898 165.759 12.25 164.821 12.25C163.999 12.25 163.483 11.8963 163.304 11.1932L162.349 11.4318C162.584 12.544 163.5 13.1364 164.838 13.1364C166.359 13.1364 167.395 12.3054 167.395 11.1761C167.395 10.2642 166.824 9.68892 165.656 9.40341L164.685 9.16477C163.909 8.97301 163.56 8.71307 163.56 8.21023C163.56 7.64773 164.156 7.23864 164.957 7.23864C165.835 7.23864 166.197 7.72443 166.372 8.17614L167.276 7.92045ZM175.028 13.1364C176.358 13.1364 177.329 12.4716 177.636 11.483L176.664 11.2102C176.409 11.892 175.816 12.233 175.028 12.233C173.848 12.233 173.034 11.4702 172.987 10.0682H177.738V9.64205C177.738 7.20455 176.289 6.36932 174.926 6.36932C173.153 6.36932 171.977 7.76705 171.977 9.77841C171.977 11.7898 173.136 13.1364 175.028 13.1364ZM172.987 9.19886C173.055 8.1804 173.775 7.27273 174.926 7.27273C176.017 7.27273 176.716 8.09091 176.716 9.19886H172.987ZM187.279 7.92045C186.964 6.99148 186.257 6.36932 184.961 6.36932C183.581 6.36932 182.558 7.15341 182.558 8.26136C182.558 9.16477 183.095 9.76989 184.297 10.0511L185.387 10.3068C186.048 10.4602 186.359 10.7756 186.359 11.2273C186.359 11.7898 185.762 12.25 184.825 12.25C184.002 12.25 183.487 11.8963 183.308 11.1932L182.353 11.4318C182.588 12.544 183.504 13.1364 184.842 13.1364C186.363 13.1364 187.399 12.3054 187.399 11.1761C187.399 10.2642 186.828 9.68892 185.66 9.40341L184.689 9.16477C183.913 8.97301 183.564 8.71307 183.564 8.21023C183.564 7.64773 184.16 7.23864 184.961 7.23864C185.839 7.23864 186.201 7.72443 186.376 8.17614L187.279 7.92045ZM191.657 13.1364C192.987 13.1364 193.958 12.4716 194.265 11.483L193.293 11.2102C193.038 11.892 192.445 12.233 191.657 12.233C190.477 12.233 189.663 11.4702 189.616 10.0682H194.367V9.64205C194.367 7.20455 192.918 6.36932 191.555 6.36932C189.782 6.36932 188.606 7.76705 188.606 9.77841C188.606 11.7898 189.765 13.1364 191.657 13.1364ZM189.616 9.19886C189.684 8.1804 190.404 7.27273 191.555 7.27273C192.646 7.27273 193.344 8.09091 193.344 9.19886H189.616ZM195.897 13H196.903V8.90909C196.903 7.95028 197.602 7.27273 198.386 7.27273C199.148 7.27273 199.681 7.77131 199.681 8.51705V13H200.704V8.73864C200.704 7.89489 201.232 7.27273 202.153 7.27273C202.869 7.27273 203.482 7.65199 203.482 8.61932V13H204.488V8.61932C204.488 7.08097 203.661 6.36932 202.494 6.36932C201.556 6.36932 200.87 6.79972 200.533 7.47727H200.465C200.141 6.77841 199.57 6.36932 198.71 6.36932C197.857 6.36932 197.227 6.77841 196.954 7.47727H196.869V6.45455H195.897V13ZM211.628 13.1534C212.77 13.1534 213.366 12.5398 213.571 12.1136H213.622V13H214.628V8.6875C214.628 6.60795 213.043 6.36932 212.207 6.36932C211.219 6.36932 210.094 6.71023 209.582 7.90341L210.537 8.24432C210.759 7.76705 211.283 7.25568 212.241 7.25568C213.166 7.25568 213.622 7.74574 213.622 8.58523V8.61932C213.622 9.10511 213.128 9.0625 211.935 9.21591C210.72 9.37358 209.395 9.64205 209.395 11.142C209.395 12.4205 210.384 13.1534 211.628 13.1534ZM211.781 12.25C210.98 12.25 210.401 11.892 210.401 11.1932C210.401 10.4261 211.099 10.1875 211.884 10.0852C212.31 10.0341 213.452 9.91477 213.622 9.71023V10.6307C213.622 11.4489 212.974 12.25 211.781 12.25ZM219.123 13.1364C220.571 13.1364 221.526 12.25 221.696 11.0909H220.691C220.503 11.8068 219.907 12.233 219.123 12.233C217.929 12.233 217.162 11.2443 217.162 9.72727C217.162 8.24432 217.946 7.27273 219.123 7.27273C220.009 7.27273 220.537 7.81818 220.691 8.41477H221.696C221.526 7.1875 220.486 6.36932 219.105 6.36932C217.333 6.36932 216.157 7.76705 216.157 9.76136C216.157 11.7216 217.282 13.1364 219.123 13.1364ZM225.911 13.1364C227.24 13.1364 228.212 12.4716 228.519 11.483L227.547 11.2102C227.292 11.892 226.699 12.233 225.911 12.233C224.73 12.233 223.917 11.4702 223.87 10.0682H228.621V9.64205C228.621 7.20455 227.172 6.36932 225.809 6.36932C224.036 6.36932 222.86 7.76705 222.86 9.77841C222.86 11.7898 224.019 13.1364 225.911 13.1364ZM223.87 9.19886C223.938 8.1804 224.658 7.27273 225.809 7.27273C226.9 7.27273 227.598 8.09091 227.598 9.19886H223.87ZM231.157 9.0625C231.157 7.92045 231.864 7.27273 232.827 7.27273C233.76 7.27273 234.327 7.8821 234.327 8.90909V13H235.333V8.84091C235.333 7.17045 234.442 6.36932 233.117 6.36932C232.128 6.36932 231.515 6.8125 231.208 7.47727H231.123V6.45455H230.151V13H231.157V9.0625ZM240.017 6.45455H238.619V4.88636H237.614V6.45455H236.625V7.30682H237.614V11.3977C237.614 12.5398 238.534 13.0852 239.386 13.0852C239.761 13.0852 240 13.017 240.136 12.9659L239.932 12.0625C239.847 12.0795 239.71 12.1136 239.489 12.1136C239.045 12.1136 238.619 11.9773 238.619 11.125V7.30682H240.017V6.45455ZM244.119 13.1364C245.891 13.1364 247.085 11.7898 247.085 9.76136C247.085 7.71591 245.891 6.36932 244.119 6.36932C242.346 6.36932 241.153 7.71591 241.153 9.76136C241.153 11.7898 242.346 13.1364 244.119 13.1364ZM244.119 12.233C242.772 12.233 242.158 11.0739 242.158 9.76136C242.158 8.44886 242.772 7.27273 244.119 7.27273C245.465 7.27273 246.079 8.44886 246.079 9.76136C246.079 11.0739 245.465 12.233 244.119 12.233ZM249.353 13.0682C249.775 13.0682 250.12 12.723 250.12 12.3011C250.12 11.8793 249.775 11.5341 249.353 11.5341C248.931 11.5341 248.586 11.8793 248.586 12.3011C248.586 12.723 248.931 13.0682 249.353 13.0682Z" fill="#495057"/>
<defs>
<clipPath id="clip0_49_645">
<rect width="16" height="16" fill="white" transform="translate(0 1)"/>
</clipPath>
</defs>
</svg>
